/* XPM */
static char *exit1717544144[] = {
/* columns rows colors chars-per-pixel */
"64 64 210 2 ",
"   c None",
".  c #191E2F",
"X  c #161C2E",
"o  c #1E2131",
"O  c #232433",
"+  c #2A2A35",
"@  c #282739",
"#  c #2C2B39",
"$  c #282734",
"%  c #322D3B",
"&  c #2F303A",
"*  c #35313C",
"=  c #3B343D",
"-  c #3A363B",
";  c #443A3D",
":  c #4A3D3D",
">  c #46373F",
",  c #4E413C",
"<  c #53443E",
"1  c #59473F",
"2  c #3C3341",
"3  c #3D3941",
"4  c #363440",
"5  c #382F41",
"6  c #433543",
"7  c #443B43",
"8  c #4B3D44",
"9  c #483647",
"0  c #523C45",
"q  c #593C42",
"w  c #533B4C",
"e  c #5A3D4B",
"r  c #503746",
"t  c #573C52",
"y  c #663E4B",
"u  c #613D54",
"i  c #3D4044",
"p  c #4C4345",
"a  c #4E4349",
"s  c #494747",
"d  c #544342",
"f  c #5C4544",
"g  c #5C4A42",
"h  c #52454A",
"j  c #59474C",
"k  c #554A4C",
"l  c #5B4B4E",
"z  c #574A41",
"x  c #5C544E",
"c  c #53514C",
"v  c #5E4F51",
"b  c #5E5551",
"n  c #624D43",
"m  c #624C4D",
"M  c #6B4D4B",
"N  c #684346",
"B  c #734D4B",
"V  c #78474A",
"C  c #665043",
"Z  c #6B5345",
"A  c #6C5349",
"S  c #6B594A",
"D  c #715645",
"F  c #745A46",
"G  c #7A5D47",
"H  c #715549",
"J  c #755B4A",
"K  c #7B5D49",
"L  c #634E51",
"P  c #674153",
"I  c #7C4553",
"U  c #77455C",
"Y  c #655153",
"T  c #6B5555",
"R  c #6A5A56",
"E  c #6E5A59",
"W  c #695955",
"Q  c #745C5A",
"!  c #7B5E5C",
"~  c #735857",
"^  c #7D614A",
"/  c #696559",
"(  c #75635C",
")  c #7C625E",
"_  c #786A5C",
"`  c #7A4762",
"'  c #7C6660",
"]  c #7E6961",
"[  c #7C7C66",
"{  c #7A7763",
"}  c #88484E",
"|  c #89574E",
" . c #824655",
".. c #874958",
"X. c #944C5A",
"o. c #9C4E5A",
"O. c #964D54",
"+. c #8B525A",
"@. c #9D505C",
"#. c #985757",
"$. c #A4525A",
"%. c #A85659",
"&. c #A04F54",
"*. c #83634B",
"=. c #89664C",
"-. c #8D6A4D",
";. c #86694D",
":. c #936D4E",
">. c #96714F",
",. c #856D52",
"<. c #8C6E52",
"1. c #80625F",
"2. c #886650",
"3. c #946E50",
"4. c #8C7152",
"5. c #81725F",
"6. c #937353",
"7. c #9C7551",
"8. c #967857",
"9. c #9E7853",
"0. c #9B7A59",
"q. c #A17652",
"w. c #A57B54",
"e. c #AB7D54",
"r. c #A17E5D",
"t. c #846561",
"y. c #846B63",
"u. c #8B6B65",
"i. c #896763",
"p. c #906E67",
"a. c #837461",
"s. c #8B7366",
"d. c #8E7468",
"f. c #8B7B67",
"g. c #94736A",
"h. c #99766C",
"j. c #957B6C",
"k. c #9B7A6E",
"l. c #9E7D70",
"z. c #A17E71",
"x. c #954F60",
"c. c #AA825B",
"v. c #B18357",
"b. c #87846B",
"n. c #96846A",
"m. c #9E8071",
"M. c #988D71",
"N. c #9C9976",
"B. c #A18B6F",
"V. c #A48373",
"C. c #A98674",
"Z. c #AC8A76",
"A. c #AE8C78",
"S. c #A48E72",
"D. c #B18F76",
"F. c #B18E79",
"G. c #AC9574",
"H. c #A89575",
"J. c #B4927A",
"K. c #B9967C",
"L. c #B59C7B",
"P. c #BC9A7D",
"I. c #B39677",
"U. c #A9A67E",
"Y. c #BDA27D",
"T. c #B3A57D",
"R. c #C19E7E",
"E. c #C3A27E",
"W. c #C5A97F",
"Q. c #BDA481",
"!. c #B5B185",
"~. c #BEB587",
"^. c #C29F80",
"/. c #C5A381",
"(. c #C9A682",
"). c #C4AB82",
"_. c #CDAB83",
"`. c #D1AE85",
"'. c #CDBC8D",
"]. c #C8B488",
"[. c #D4B386",
"{. c #D9B688",
"}. c #D3BA8B",
"|. c #DCBB8A",
" X c #D7B688",
".X c #E1BF8B",
"XX c #C4C08E",
"oX c #DEC18D",
"OX c #D4C492",
"+X c #DDCB95",
"@X c #DBD499",
"#X c #CDC490",
"$X c #E3C28D",
"%X c #E5CA92",
"&X c #E8CD93",
"*X c #E1C690",
"=X c #EAD297",
"-X c #E3D69B",
";X c #EAD598",
":X c #E6DC9E",
">X c #EDDC9D",
",X c #E3D097",
"<X c #EDE09F",
"1X c #E8DEA1",
"2X c #EDE3A2",
"3X c #E7E1A1",
"4X c #F0E4A2",
"5X c #F3EAA6",
"6X c #F4EEA8",
"7X c #F5F0A9",
/* pixels */
"                                                                                                                                ",
"                                                                                                                                ",
"                                                                                                                                ",
"                                                                                                                                ",
"                                                                                                                                ",
"                                                                                                                                ",
"                                                                                                                                ",
"                                                                                                                                ",
"                                                    - ,     s x x p       -                                                     ",
"                                                  s / n.5.5.B.L.T.S.5.5.n._ x                                                   ",
"                                                - _ G.W.`.W.oX%X&X$X X[.[.G._ *                                                 ",
"                                          2 a h c n.W.W.Y.].%X<X4X>X=X%X$X[.n.g k s -                                           ",
"                                        - h ) p.d.Y.W.G.S.T.OX2X4X>X=X%X&X$XE.f.d.( s 4                                         ",
"                                      3 l _ k.V.Z._. XY.S.L.OX2X6X4X=X&X&X$XW.D.V.g.' v 3                                       ",
"                                  @ 3 Y y.V.C.C.R.[..XW.K.L.OX4X6X4X=X$X$X$X{.R.C.l.V.y.Y 3 @                                   ",
"                                # s ' j.C.Z.z.V.R.{.$X$X X|.&X4X5X;X%X$X$X$X{.R.Z.C.A.C.j.' s #                                 ",
"                                v ' V.A.J.F.A.C.D.W.&X&X&X&X;X4X5X-X}.[.{..X`.R.z.l.^.^.^.k.' l                                 ",
"                            # 7 ] C.F./._.^.F.C.J.`.$X&X&X;X;X5X2X+X).P.W..X{.R.^.^.^.`.^.^.m.' 7 #                             ",
"                        * 6 7 a y.A.^.[.|.`.J.C.K.[.$X$X&X=X4X6X1X'.E.R.{..X{.R.k.A._.}./.^.^.Q h 7 7 %                         ",
"                    # 6 j T T v s.J.Q.`.{.`.K.A.R.{.$X.X&X=X>X5X5X1X*X.X.X.X.XE.C.F.`.`./.^.^.y.v T T j 6 #                     ",
"                  + 7 L ! ! E E h.F.K.`.[.(.F.F.E.{..X.X|.%X>X6X7X6X2X=X.X.X{.K.C.J._.[.(.^.A.d.E E ! ! L 9 +                   ",
"                  6 L ! 1.L v ' l.F.K.`.{./.Z.D._.|.{.W.].+X4X6X5X5X>X;X.X.X(.F.z.A.^.`.^.^.^.g.] v L t.! L 6                   ",
"                O 2 L t.t.L j ' l.A.R.`..X(.D.D.[.|.[.K.^.'.1X4X4X4X;X%X.X.X`.^.F.F.^.^.^.^.^.l.( j L t.t.L 2 O                 ",
"                  w ! g.h.) E ] l.J.R.`.{.`.F.D._.|.{.(.Q.].-X2X5X4X&X$X.X.X.X_.^.^._._.^.A.^.l.( Y Q p.g.! w                   ",
"                * L t.l.z.u.+.s.C.^.^.(.`.^.F.D.`..X.X{.`.OX1X5X6X5X-X}.(. X|. X^.^._.[.(.^.^.l.i.! i.z.l.t.L %                 ",
"                7 Q p.k.z.u.] g.F./.^.(.`.W.D.Z.`..X.X.X%X>X5X6X6X2XOXQ.K.`.|.[.^.^._. X`.^.^.C.g.t.u.z.V.g.! 7                 ",
"              2 h t.k.z.h.i.t.k.C.^./.`.{._.I.J.[..X.X.X.X@X5X7X6X1X].L.K.[.|.`.J.K._.|.`.^.^.C.k.t.t.h.C.l.t.h =               ",
"              a T i.z.V.g.t.' l.C.A.^.`.|.[.K.K.{.$X$X[./.'.@X5X2X:X].Q._.|.|.].I.J._.|.`.^.A.C.z.' 1.h.z.k.i.L 7               ",
"            @ 7 L i.z.z.p.! ! h.C.^.^.(.}.`.K.K.}.*X$X_.K.L.'.2X6X4X%X$X.X$X$X}.P.P.`.|.[./.J.C.h.! ! g.V.l.t.L 6 O             ",
"              8 Y t.h.k.p.! ) k.C.A.^.^.(.^.F.C.Y.|.%X*X X}.+X2X6X4X;X%X%X*X|.(.I.P. X|.{./.^.C.h.! ! g.z.h.i.T a               ",
"            # 7 L t.h.z.h.! ! h.A.^.F.^._._.^.J._.*X>X;X=X;X2X5X6X6X>X=X;X&X|.E.A.K.|..X{.(.K.C.h.! ! p.k.h.t.E k *             ",
"            o 6 Y u.z.V.h.t.t.l.A.^.^.^.[.{.^.F.}.-X4X>X:X:X:X2X2X1X:X-X>X1X%X).j.z.`.|.[.(.P.F.z.t.1.g.h.h.t.Y 7 o             ",
"              6 L i.z.z.g.! ( V.A.C.I.(.|.{.I.H.OX@X@XXX!.N.U.!.!.!.N.!.~.@X@X~.[ d.(.}._.^.J.J.Z.i.t.g.z.z.p.T 6               ",
"              8 T i.l.z.u.T R j.j.j.G._.oX}.M.M.~.U.b./ s i c x x s i s / b.!.!.f.f.].|.`.A.n.k.m.( Q u.z.z.g.T 8               ",
"              7 T u.z.l.i.R R u.( R f.].@X#XN.{ [ / 7 & O @ * p p % @ @ & - c [ { M.'.@X].f.W ( u.W W t.h.l.i.T 8               ",
"            @ 8 ~ u.l.j.! R ' j.' b _ ~.@X'.[ c p z g p 3 5 = n n 2 5 2 p z z s c [ XX3X~.{ x ( j.' E Q p.h.i.~ a o             ",
"            # j ! i.h.t.l R d.J.S.n.n.T.T.[ s 2 g Z G _ S s , S F , s S ,.^ C d 2 s [ !.!.M.n.B.A.d.W v ] p.p.! v #             ",
"            7 Y 1.i.i.E p l d.W.}. XY.n./ * 5 5 7 Z =.:.,.S 1 ^ ^ 1 S 4.4.*.C 7 2 # 4 / N.W.].`.L.s.v 8 Q u.i.1.Y 8             ",
"            j T ) i.i.Q h x f._.].I.a.b p - ; p : < D *.F z , ^ ^ , 1 ^ ;.Z d 7 p p * s / f.T.`.Y.a.j h ' p.u.1.Y h             ",
"          # 5 j ! i.p.u.Q { S.}.S./ s , d A ^ 4.4.^ F ^ ^ F z Z S g ^ <.;.F ^ 6.8.,.S , , c / B.(.M._ Q u.p.i.) v 5 #           ",
"            2 Y ! ! y.g.y.b.H.).f., 3 d H *.3.9.w.7.:.:.:.7.6.6.6.6.c.w.9.9.q.w.c.7.=.J f 8 7 ( I.H.f.( s.i.! 1.L 2             ",
"          % a ~ ! Y ( y.] s.{ _ c p 7 8 l Z D J G F G G K K K G ^ G G G | K ^ G G F D n j 9 - p W _ ( ( ' E W ' ~ a #           ",
"          # 8 L ' ' d.d.( k 3 5 6 t t 9 6 % > < : r 0 j e t e 6 6 j e e e r : : < ; = 9 t t w 9 * s R s.j.d.y.y.E 8 #           ",
"          O = 7 Y y.j.s.k 5 % 6 t ` ` U u 6 n A f y I ..+.x.+.y N #.| I } y y 1 Z n 6 u ` ....u 6 # 3 Y d.j.y.R k 7             ",
"            O 5 a W E v = = 6 w U x.$.X.I q | -.Z V O.%.$.#.#.V V %.%.%.#.} } Z -.| N I X.o.o. .e > = > Y ( R k 7 %             ",
"                # # * - 8 d e e  .$.$.o.I f ^ -.Z V } O.| | #.N M #.$.#.} V N Z >.;.N } $.$.$. .e 0 d ; = * # #                 ",
"                  X $ ; f A M y } %.$.X.} q F ^ C n A 2.<.<.6.<.3.8.0.6.=.D n Z -.*.N } o.&.o.I e l A m : + X                   ",
"                  . = C =.=.H y ..$.o.o.} : Z G n z n ;.3.9.9.w.e.c.e.w.4.A g n ^ D : } $.%.$...y M *.=.m = .                   ",
"                  . : G 7.=.C P ..$.$.o. .q n n : > : Z K =.K K K K -.:.=.n p 8 f f q } $.$.%.X.P M =.7.F ; .                   ",
"                  o , *.e.*.m t  .&.@.X.I y 0 9 6 6 6 0 e e 9 9 6 9 0 j 0 8 6 6 6 q y } O.X.O. .u n | q.| : .                   ",
"                  o < =.w.*.: r f V B D M M m l L R ~ ! ~ ~ L l j j j h j m S A m m M B V B B f > < ^ 9.=.< O                   ",
"                  + C :.q.K 1 < G 4.4.-.<.4.4.6.8.c.v.c.r.r.r.0.8.8.4.4.,.8.8.8.8.6.4.4.4.4.,.Z < < F 6.-.n +                   ",
"                  + C =.:.G Z n *.7.9.7.7.7.6.>.6.e.v.v.e.w.w.7.6.:.:.-.>.q.7.:.7.q.q.9.7.7.9.=.n 1 D =.-.C +                   ",
"                  O : C G G A n F =.=.^ G =.:.7.q.e.e.w.q.3.:.:.=.*.=.:.q.e.e.q.q.3.;.| ^ =.:.^ n d n F G n +                   ",
"                  o $ % : , ; - : n C n 1 1 D =.>.:.=.G Z 1 < < , , , C -.q.w.q.-.F 1 1 C C n , % * - ; : ; o                   ",
"                        O       O +                       O                                                                     ",
"                                                                                                                                ",
"                                                                                                                                ",
"                                                                                                                                ",
"                                                                                                                                ",
"                                                                                                                                ",
"                                                                                                                                ",
"                                                                                                                                ",
"                                                                                                                                "
};
