/* XPM */
static char *_6b43702fcb248e5e5b13eb3fe0103cdNc6xLmj6hdToc7C7[] = {
/* columns rows colors chars-per-pixel */
"32 32 10 1 ",
"  c None",
". c #130806",
"X c #141F1F",
"o c #704A2D",
"O c #324949",
"+ c #597877",
"@ c #A57B5F",
"# c #DF5353",
"$ c #FF9C8F",
"% c #E3C396",
/* pixels */
"              .....             ",
"           ...@$$@@...          ",
"        ...@$$$$$$$$@@..        ",
"      ..@$$$$$$$$$$$$@@@..      ",
"     ..@$$@$$$%%%%$$$@@@@@.     ",
"    .$@@@@$$$$$$$$$$$@@oo@@.    ",
"   .$@@@@@@@@@@@@@@@@@@@oo@@.   ",
"   .@@@@@$$$$$$@$$$$$$@@o@oo.   ",
"  .o@@@@@@oX.oooooX..o@@@@oo@.  ",
"  .o@@@@$$X+Oo@oooO+O@$$@@oo@.  ",
"  .o@@@$@$$XX@@@@@.OX$$$@$@oo@. ",
"  .o@$$%$@@@@$$$#@$$$$%$$$@oo@. ",
"  .o@@o$$$@@$$$$$$@$$$$$$$@oo@. ",
"  .o@o.@$$$$$$$$$$$@$$$$@@@oo@. ",
"  ..@@@.@$$$$$%%%$$$$$$$oo@oo@. ",
"   .@@@$.o$$$$$$$$$$$@oo$@oo@.  ",
"   .o@o@$$@@oooooooo@$$$@@oo@.  ",
"    .@@o@$$$$$$%$$$$$$$$@@oo.   ",
"     o@o@@@$$$$$$$$$$$$@@oo@.   ",
"      .oo@@@$$@@@$$$@@@@@o@.    ",
"       .o@@$$$$$$$$$$$@@@o.     ",
"       .o@@@$$$$$$$$$@@@o.      ",
"       .o@@@@@@@@@@@@@@..       ",
"     ..@.o@@@@@@@@@@o.o@@..     ",
"    ..@oo............o@@@@@.    ",
"   ..@o@@@oooooooooooo@@@@@@..  ",
"  ..@@@@@@@@oo@o@@@o@@@@@@@@@.. ",
"...@@@$$$$$@@@$@@$@@@$$$@@@@@@@.",
".@@@@@@@@@$$$$$@@$@@$$$$$$@@@@@@",
"@@@@@@$@@@@$$$$$@@$$$$$@@@@@@@@@",
"@@$$$$$$$$@@@$$@@$$$@@@@@@@@@@@@",
"@$$$$$$$$$$$@@@@@$$$$$$$$$$$$$@@"
};
